<svg width="234" height="68" viewBox="0 0 234 68" fill="none" xmlns="http://www.w3.org/2000/svg">
<g clip-path="url(#clip0_513_5436)">
<path d="M125.818 31.2204V34.4425H125.165V31.2204H123.841V30.6477H127.136V31.2204H125.812H125.818Z" fill="white"/>
<path d="M130.581 34.4367V32.817H128.633V34.4367H127.992V30.6477H128.633V32.2443H130.581V30.6477H131.223V34.4367H130.581Z" fill="white"/>
<path d="M132.431 34.4367V30.6477H134.957V31.2088H133.067V32.2501H134.639V32.8228H133.067V33.8756H134.957V34.4367H132.431Z" fill="white"/>
<path d="M137.853 34.4367V30.6477H140.379V31.2088H138.489V32.2501H140.061V32.8228H138.489V33.8756H140.379V34.4367H137.853Z" fill="white"/>
<path d="M142.061 34.4367H141.42V30.6477H142.772C143.726 30.6477 144.258 31.0873 144.258 31.8278C144.258 32.3831 143.975 32.7534 143.506 32.9385L144.46 34.4425H143.72L142.871 33.0773L142.061 33.1236V34.4425V34.4367ZM142.715 32.574C143.345 32.5683 143.605 32.2906 143.605 31.8683C143.605 31.4113 143.31 31.2088 142.709 31.2088H142.056V32.5798H142.715V32.574Z" fill="white"/>
<path d="M145.408 34.4367V30.6477H146.05V34.4367H145.408Z" fill="white"/>
<path d="M150.044 31.4171C149.72 31.2262 149.391 31.1105 149.009 31.1105C148.217 31.1105 147.72 31.6485 147.72 32.522C147.72 33.3955 148.217 33.9682 149.015 33.9682C149.426 33.9682 149.813 33.8178 150.085 33.6153L150.218 34.2227C149.9 34.4078 149.437 34.5177 149.004 34.5177C147.848 34.5177 147.079 33.7715 147.079 32.5451C147.079 31.3188 147.853 30.5552 149.009 30.5552C149.46 30.5552 149.923 30.6651 150.246 30.8618L150.044 31.4171Z" fill="white"/>
<path d="M153.697 34.5351C152.923 34.5351 152.478 34.0318 152.478 33.4244C152.478 32.9038 152.911 32.5046 153.449 32.36C153.01 32.1286 152.79 31.8278 152.79 31.4344C152.79 30.9369 153.218 30.4105 153.981 30.4105C154.697 30.4105 155.073 30.8791 155.073 31.3766C155.073 31.7989 154.744 32.1286 154.31 32.3021C154.547 32.4178 154.882 32.7071 155.143 33.0021L155.755 32.0592H156.368L155.385 33.2856L156.356 34.4425L155.784 34.5351L155.079 33.6442C154.703 34.1822 154.241 34.5351 153.674 34.5351H153.697ZM153.767 32.5162C153.333 32.7186 153.015 33.0021 153.015 33.3781C153.015 33.7541 153.287 34.0781 153.767 34.0781C154.183 34.0781 154.559 33.8004 154.871 33.3665C154.518 32.9674 154.137 32.6434 153.767 32.5162ZM154.559 31.4171C154.559 31.0873 154.316 30.8502 153.934 30.8502C153.553 30.8502 153.327 31.1105 153.327 31.3939C153.327 31.7526 153.547 31.9608 153.981 32.146C154.322 32.0013 154.559 31.7699 154.559 31.4229V31.4171Z" fill="white"/>
<path d="M160.125 34.4367H159.484L158.409 30.6477H159.085L159.836 33.6095L160.692 30.6477H161.426L162.287 33.6095L163.039 30.6477H163.68L162.605 34.4367H161.946L161.05 31.4113L160.131 34.4367H160.125Z" fill="white"/>
<path d="M164.651 34.4367V30.6477H167.177V31.2088H165.287V32.2501H166.86V32.8228H165.287V33.8756H167.177V34.4367H164.651Z" fill="white"/>
<path d="M170.848 30.6477H171.467V34.4772H170.773L168.819 31.5733L168.837 34.4425H168.218V30.6535H168.929L170.871 33.517L170.854 30.6535L170.848 30.6477Z" fill="white"/>
<path d="M173.866 34.4367H172.669V30.6477H173.906C175.195 30.6477 175.958 31.3882 175.958 32.5162C175.958 33.6442 175.218 34.4367 173.866 34.4367ZM173.848 31.2088H173.311V33.8756H173.883C174.738 33.8756 175.311 33.4244 175.311 32.5509C175.311 31.6774 174.773 31.2088 173.854 31.2088H173.848Z" fill="white"/>
<path d="M178.484 32.9616V34.4367H177.842V32.95L176.507 30.6477H177.207L178.166 32.3484L179.114 30.6477H179.825L178.49 32.9616H178.484Z" fill="white"/>
<path d="M184.334 33.4186C184.334 33.0657 184.051 32.9442 183.444 32.7765C182.895 32.6319 182.27 32.3889 182.27 31.6427C182.27 30.9948 182.791 30.5609 183.606 30.5609C184.097 30.5609 184.519 30.6708 184.883 30.8906L184.698 31.4344C184.369 31.2319 183.964 31.1163 183.611 31.1163C183.114 31.1163 182.9 31.3419 182.9 31.6137C182.9 31.9608 183.236 32.0823 183.808 32.2327C184.369 32.3831 184.958 32.6492 184.958 33.3723C184.958 34.0491 184.398 34.5293 183.548 34.5293C183.068 34.5293 182.577 34.3904 182.201 34.1764L182.374 33.6211C182.716 33.8293 183.097 33.9797 183.559 33.9797C184.022 33.9797 184.334 33.7483 184.334 33.4186Z" fill="white"/>
<path d="M188.744 31.4171C188.421 31.2262 188.091 31.1105 187.71 31.1105C186.918 31.1105 186.421 31.6485 186.421 32.522C186.421 33.3955 186.918 33.9682 187.716 33.9682C188.12 33.9682 188.513 33.8178 188.785 33.6153L188.918 34.2227C188.6 34.4078 188.138 34.5177 187.704 34.5177C186.548 34.5177 185.779 33.7715 185.779 32.5451C185.779 31.3188 186.554 30.5552 187.71 30.5552C188.161 30.5552 188.623 30.6651 188.947 30.8618L188.744 31.4171Z" fill="white"/>
<path d="M192.508 34.4367V32.817H190.56V34.4367H189.918V30.6477H190.56V32.2443H192.508V30.6477H193.149V34.4367H192.508Z" fill="white"/>
<path d="M197.762 34.4367L197.716 31.4576L196.664 34.4367H195.987L194.918 31.4518L194.878 34.4367H194.242L194.363 30.6477H195.259L196.334 33.7079L197.409 30.6477H198.288L198.409 34.4367H197.756H197.762Z" fill="white"/>
<path d="M199.519 34.4367V30.6477H200.161V34.4367H199.519Z" fill="white"/>
<path d="M202.577 34.4367H201.381V30.6477H202.618C203.907 30.6477 204.67 31.3882 204.67 32.5162C204.67 33.6442 203.93 34.4367 202.577 34.4367ZM202.56 31.2088H202.022V33.8756H202.595C203.45 33.8756 204.022 33.4244 204.022 32.5509C204.022 31.6774 203.485 31.2088 202.566 31.2088H202.56Z" fill="white"/>
<path d="M207.225 31.2204V34.4425H206.572V31.2204H205.248V30.6477H208.543V31.2204H207.219H207.225Z" fill="white"/>
<path d="M214.023 31.4171C213.699 31.2262 213.369 31.1105 212.988 31.1105C212.196 31.1105 211.699 31.6485 211.699 32.522C211.699 33.3955 212.196 33.9682 212.994 33.9682C213.404 33.9682 213.791 33.8178 214.063 33.6153L214.196 34.2227C213.878 34.4078 213.416 34.5177 212.982 34.5177C211.826 34.5177 211.057 33.7715 211.057 32.5451C211.057 31.3188 211.832 30.5552 212.988 30.5552C213.439 30.5552 213.901 30.6651 214.225 30.8618L214.023 31.4171Z" fill="white"/>
<path d="M215.19 34.4367V30.6477H217.716V31.2088H215.826V32.2501H217.398V32.8228H215.826V33.8756H217.716V34.4367H215.19Z" fill="white"/>
<path d="M221.387 30.6477H222.005V34.4772H221.312L219.358 31.5733L219.375 34.4425H218.757V30.6535H219.468L221.41 33.517L221.393 30.6535L221.387 30.6477Z" fill="white"/>
<path d="M224.821 31.2204V34.4425H224.167V31.2204H222.844V30.6477H226.138V31.2204H224.815H224.821Z" fill="white"/>
<path d="M226.988 34.4367V30.6477H229.514V31.2088H227.624V32.2501H229.196V32.8228H227.624V33.8756H229.514V34.4367H226.988Z" fill="white"/>
<path d="M231.196 34.4367H230.555V30.6477H231.907C232.861 30.6477 233.393 31.0873 233.393 31.8278C233.393 32.3831 233.11 32.7534 232.642 32.9385L233.595 34.4425H232.855L232.006 33.0773L231.196 33.1236V34.4425V34.4367ZM231.85 32.574C232.48 32.5683 232.74 32.2906 232.74 31.8683C232.74 31.4113 232.445 31.2088 231.844 31.2088H231.191V32.5798H231.85V32.574Z" fill="white"/>
<path d="M124.257 50.1076L125.489 49.8936V42.1883L124.257 41.9742V41.1123H128.448C132.408 41.1123 134.055 42.8535 134.055 46.1219C134.055 49.3903 131.778 50.9753 128.622 50.9753H124.263V50.1134L124.257 50.1076ZM128.708 49.7837C131.419 49.7837 132.68 48.3201 132.68 46.1161C132.68 43.4783 131.57 42.2924 128.443 42.2924H126.812V49.7837H128.708Z" fill="white"/>
<path d="M140.992 50.1713C140.917 50.2465 140.021 51.1605 138.264 51.1605C136.772 51.1605 135.535 50.42 135.535 48.835C135.535 47.25 136.859 46.4286 138.766 46.4286C139.83 46.4286 140.628 46.7062 140.813 46.7699V46.3244C140.813 45.1848 139.963 44.7047 138.535 44.7047C137.472 44.7047 136.593 45.1964 136.489 45.26L135.998 44.3634C136.136 44.2708 137.119 43.5767 138.801 43.5767C140.726 43.5767 142.079 44.4097 142.079 46.4748V49.9283L143.31 50.1135V50.9754H141.339L140.986 50.1713H140.992ZM140.824 47.7995C140.703 47.7533 139.975 47.4756 138.836 47.4756C137.697 47.4756 136.743 47.7995 136.743 48.783C136.743 49.6622 137.327 50.0787 138.454 50.0787C139.795 50.0787 140.535 49.5408 140.824 49.2284V47.7938V47.7995Z" fill="white"/>
<path d="M145.229 48.9045C145.229 48.9045 145.246 46.6079 145.258 44.8841H143.963V43.9759C145.212 43.6982 145.316 43.4032 145.535 41.7256H146.524V43.8197H149.004V44.8841H146.524C146.495 48.3029 146.495 48.3665 146.495 48.4301C146.495 49.5524 146.651 49.9689 147.588 49.9689C148.235 49.9689 148.882 49.616 148.94 49.5697L149.431 50.4201C149.322 50.5127 148.478 51.068 147.293 51.068C145.998 51.068 145.229 50.3449 145.229 48.9103V48.9045Z" fill="white"/>
<path d="M155.871 50.1713C155.796 50.2465 154.9 51.1605 153.143 51.1605C151.651 51.1605 150.414 50.42 150.414 48.835C150.414 47.25 151.738 46.4286 153.645 46.4286C154.709 46.4286 155.507 46.7062 155.692 46.7699V46.3244C155.692 45.1848 154.842 44.7047 153.414 44.7047C152.351 44.7047 151.472 45.1964 151.368 45.26L150.877 44.3634C151.015 44.2708 151.998 43.5767 153.68 43.5767C155.605 43.5767 156.958 44.4097 156.958 46.4748V49.9283L158.189 50.1135V50.9754H156.218L155.865 50.1713H155.871ZM155.703 47.7995C155.582 47.7533 154.854 47.4756 153.715 47.4756C152.576 47.4756 151.622 47.7995 151.622 48.783C151.622 49.6622 152.206 50.0787 153.333 50.0787C154.674 50.0787 155.414 49.5408 155.703 49.2284V47.7938V47.7995Z" fill="white"/>
<path d="M165.01 49.4597C165.212 49.6911 166.241 50.0787 167.241 50.0787C168.241 50.0787 170.183 49.8936 170.183 48.4301C170.183 47.1516 168.611 46.874 166.935 46.5327C165.582 46.255 163.53 45.8558 163.53 43.756C163.53 41.766 165.519 40.8578 167.49 40.8578C169.461 40.8578 171.322 41.7371 171.322 42.9519C171.322 43.5708 170.935 44.0163 170.351 44.0163C169.767 44.0163 169.444 43.5998 169.444 43.218C169.444 42.8767 169.611 42.6916 169.721 42.5874C169.519 42.3734 168.721 42.0147 167.519 42.0147C166.073 42.0147 164.854 42.6453 164.854 43.7097C164.854 44.8666 166.195 45.1096 167.64 45.4046C169.582 45.8038 171.507 46.3475 171.507 48.4127C171.507 50.125 169.981 51.2183 167.38 51.2183C165.472 51.2183 163.362 50.4027 163.362 49.0606C163.362 48.3664 163.796 48.0251 164.316 48.0251C164.946 48.0251 165.253 48.5168 165.253 48.8755C165.253 49.1821 165.068 49.4019 165.004 49.4597H165.01Z" fill="white"/>
<path d="M179.369 49.5697L179.848 50.449C179.756 50.5126 178.681 51.2183 176.952 51.2183C174.657 51.2183 173.103 49.6622 173.103 47.4293C173.103 45.1964 174.796 43.5767 177.045 43.5767C178.536 43.5767 179.912 44.4212 179.912 45.4567C179.912 46.012 179.542 46.4459 178.987 46.4459C178.542 46.4459 178.201 46.0583 178.201 45.6939C178.201 45.3294 178.449 45.1096 178.525 45.0633C178.34 44.8956 177.906 44.6931 177.062 44.6931C175.368 44.6931 174.38 45.9253 174.38 47.4351C174.38 48.9449 175.305 50.1482 177.108 50.1482C178.322 50.1482 179.293 49.6217 179.374 49.5755L179.369 49.5697Z" fill="white"/>
<path d="M181.45 44.7452V43.8196L183.929 43.6634V49.9226L185.086 50.1077V50.9696H181.588V50.1077L182.669 49.9226V44.9303L181.455 44.7452H181.45ZM183.265 39.724C183.866 39.724 184.311 40.1868 184.311 40.771C184.311 41.3553 183.866 41.8065 183.265 41.8065C182.663 41.8065 182.23 41.3437 182.23 40.771C182.23 40.1984 182.675 39.724 183.265 39.724Z" fill="white"/>
<path d="M192.698 49.5061L193.236 50.3391C193.161 50.4027 192.022 51.2183 190.276 51.2183C188.01 51.2183 186.427 49.8647 186.427 47.4582C186.427 45.0518 187.953 43.5767 190.109 43.5767C192.56 43.5767 193.496 45.2253 193.496 46.8566C193.496 47.4872 193.357 47.8285 193.329 47.9037H187.664C187.773 49.2747 188.727 50.1539 190.3 50.1539C191.698 50.1539 192.612 49.5697 192.704 49.5061H192.698ZM192.311 46.8393C192.317 46.7699 192.329 46.6773 192.329 46.579C192.329 45.8211 191.941 44.6526 190.097 44.6526C188.849 44.6526 187.878 45.4509 187.681 46.8393H192.317H192.311Z" fill="white"/>
<path d="M197.242 44.8204C197.473 44.5601 198.398 43.5709 200.121 43.5709C201.751 43.5709 203.092 44.4329 203.092 46.7294V49.9168L204.323 50.1019V50.9639H200.751V50.1019L201.832 49.9168V46.8798C201.832 45.2774 201.213 44.6932 199.832 44.6932C198.45 44.6932 197.612 45.7691 197.415 46.1856V49.9168L198.647 50.1019V50.9639H195.074V50.1019L196.155 49.9168V44.9246L194.895 44.7394V43.8139L197.022 43.6924L197.253 44.8204H197.242Z" fill="white"/>
<path d="M211.647 49.5697L212.127 50.449C212.034 50.5126 210.959 51.2183 209.231 51.2183C206.936 51.2183 205.381 49.6622 205.381 47.4293C205.381 45.1964 207.074 43.5767 209.323 43.5767C210.814 43.5767 212.19 44.4212 212.19 45.4567C212.19 46.012 211.82 46.4459 211.265 46.4459C210.82 46.4459 210.479 46.0583 210.479 45.6939C210.479 45.3294 210.728 45.1096 210.803 45.0633C210.618 44.8956 210.184 44.6931 209.34 44.6931C207.647 44.6931 206.658 45.9253 206.658 47.4351C206.658 48.9449 207.583 50.1482 209.387 50.1482C210.601 50.1482 211.572 49.6217 211.653 49.5755L211.647 49.5697Z" fill="white"/>
<path d="M219.768 49.5061L220.306 50.3391C220.231 50.4027 219.092 51.2183 217.346 51.2183C215.08 51.2183 213.497 49.8647 213.497 47.4582C213.497 45.0518 215.023 43.5767 217.179 43.5767C219.63 43.5767 220.566 45.2253 220.566 46.8566C220.566 47.4872 220.427 47.8285 220.399 47.9037H214.734C214.844 49.2747 215.797 50.1539 217.37 50.1539C218.768 50.1539 219.682 49.5697 219.774 49.5061H219.768ZM219.381 46.8393C219.387 46.7699 219.399 46.6773 219.399 46.579C219.399 45.8211 219.011 44.6526 217.167 44.6526C215.919 44.6526 214.948 45.4509 214.751 46.8393H219.387H219.381Z" fill="white"/>
<path d="M232.37 50.9696L231.428 49.8589C231.052 50.287 230.011 51.1894 228.393 51.1894C226.907 51.1894 225.537 50.1887 225.537 48.5516C225.537 46.9145 226.896 45.9137 227.879 45.4162L227.78 45.2774C227.474 44.8493 227.324 44.4849 227.324 44.0163C227.324 42.9056 228.283 41.8644 229.85 41.8644C231.029 41.8644 232 42.4776 232 43.3221C232 43.7965 231.624 44.1551 231.179 44.1551C230.734 44.1551 230.474 43.8775 230.474 43.4899C230.474 43.2701 230.584 43.1312 230.682 43.0329C230.653 43.004 230.462 42.8362 229.907 42.8362C229.075 42.8362 228.532 43.3106 228.532 43.9353C228.532 44.2014 228.642 44.4791 228.907 44.8088L233.012 49.9978L233.786 50.1887V50.9638H232.37V50.9696ZM228.532 46.3187C227.67 46.6252 226.717 47.4293 226.717 48.4012C226.717 49.6102 227.676 50.1192 228.503 50.1192C229.514 50.1192 230.387 49.5523 230.792 49.1069L228.532 46.3187Z" fill="white"/>
<path d="M127.101 57.7263V60.9773H131.524V62.2673H127.101V65.8712H132.379L132.599 64.9167H133.605L133.72 67.1612H124.321V66.2241L125.662 65.9869V57.599L124.321 57.3618V56.4247H133.552L133.454 58.6692H132.448L132.229 57.7147H127.101V57.7263Z" fill="white"/>
<path d="M137.761 60.4798C138.009 60.1963 139.015 59.1204 140.894 59.1204C142.668 59.1204 144.131 60.0575 144.131 62.5565V66.0274L145.472 66.2298V67.167H141.582V66.2298L142.755 66.0274V62.7243C142.755 60.9773 142.084 60.3409 140.576 60.3409C139.067 60.3409 138.165 61.5153 137.946 61.9665V66.0274L139.287 66.2298V67.167H135.396V66.2298L136.57 66.0274V60.5955L135.194 60.393V59.3865L137.506 59.2534L137.761 60.4798Z" fill="white"/>
<path d="M151.761 60.3293V59.3922H155.316V60.3293L154.276 60.5318L151.293 67.2074H149.749L146.732 60.5318L145.691 60.3293V59.3922H149.362V60.3293L148.189 60.5318L150.588 66.0968L152.934 60.5318L151.761 60.3293Z" fill="white"/>
<path d="M156.368 60.393V59.3865L159.068 59.2187V66.0274L160.322 66.2298V67.167H156.518V66.2298L157.692 66.0274V60.5955L156.368 60.393ZM158.345 54.9264C158.998 54.9264 159.484 55.4297 159.484 56.066C159.484 56.7023 158.998 57.1882 158.345 57.1882C157.692 57.1882 157.224 56.685 157.224 56.066C157.224 55.447 157.709 54.9264 158.345 54.9264Z" fill="white"/>
<path d="M164.467 66.0273L166.276 66.2298V67.1669H161.917V66.2298L163.091 66.0273V60.5954L161.715 60.3929V59.3864L164.027 59.2533L164.345 60.8441C165.484 59.5021 166.287 59.1145 167.108 59.1145C167.727 59.1145 168.565 59.45 168.565 60.4219C168.565 61.0408 168.131 61.5441 167.576 61.5441C167.022 61.5441 166.686 61.1392 166.686 60.6532C166.686 60.4508 166.756 60.3004 166.785 60.2367C166.536 60.2541 165.53 60.6533 164.455 62.3135V66.0215L164.467 66.0273Z" fill="white"/>
<path d="M178.161 63.2796C178.161 65.796 176.317 67.4389 173.889 67.4389C171.461 67.4389 169.582 65.796 169.582 63.2796C169.582 60.7632 171.444 59.1204 173.889 59.1204C176.334 59.1204 178.161 60.7459 178.161 63.2796ZM176.767 63.2796C176.767 61.5673 175.681 60.312 173.883 60.312C172.085 60.312 170.97 61.5673 170.97 63.2796C170.97 64.9919 172.074 66.2819 173.883 66.2819C175.692 66.2819 176.767 65.0093 176.767 63.2796Z" fill="white"/>
<path d="M182.236 60.4798C182.484 60.1963 183.49 59.1204 185.369 59.1204C187.143 59.1204 188.606 60.0575 188.606 62.5565V66.0274L189.947 66.2298V67.167H186.057V66.2298L187.23 66.0274V62.7243C187.23 60.9773 186.56 60.3409 185.051 60.3409C183.542 60.3409 182.64 61.5153 182.421 61.9665V66.0274L183.762 66.2298V67.167H179.872V66.2298L181.045 66.0274V60.5955L179.669 60.393V59.3865L181.981 59.2534L182.236 60.4798Z" fill="white"/>
<path d="M193.583 60.4798C193.803 60.1963 194.756 59.1204 196.45 59.1204C197.473 59.1204 198.543 59.5369 199.045 60.5145C199.381 60.0806 200.288 59.1204 202.144 59.1204C204.207 59.1204 205.028 60.393 205.028 62.4929V66.0332L206.369 66.2356V67.1728H202.479V66.2356L203.652 66.0332V62.7821C203.652 61.0236 203.115 60.3525 201.959 60.3525C200.45 60.3525 199.577 61.4111 199.381 61.9144C199.386 62.1227 199.398 62.383 199.398 62.5854V66.039L200.739 66.2414V67.1785H196.849V66.2414L198.022 66.039V62.7358C198.022 61.2087 197.589 60.3525 196.294 60.3525C194.883 60.3525 193.982 61.5442 193.762 61.978V66.039L195.103 66.2414V67.1785H191.213V66.2414L192.386 66.039V60.607L191.011 60.4046V59.398L193.323 59.265L193.577 60.4914L193.583 60.4798Z" fill="white"/>
<path d="M214.468 65.5762L215.052 66.4844C214.971 66.5538 213.728 67.4389 211.832 67.4389C209.369 67.4389 207.641 65.9637 207.641 63.349C207.641 60.7343 209.3 59.1204 211.647 59.1204C214.312 59.1204 215.335 60.9136 215.335 62.6896C215.335 63.378 215.185 63.7482 215.15 63.8292H208.982C209.098 65.3216 210.138 66.2761 211.849 66.2761C213.375 66.2761 214.364 65.6398 214.462 65.5704L214.468 65.5762ZM214.052 62.6722C214.057 62.597 214.069 62.4987 214.069 62.3888C214.069 61.5673 213.653 60.2947 211.641 60.2947C210.283 60.2947 209.231 61.1682 209.011 62.678H214.057L214.052 62.6722Z" fill="white"/>
<path d="M219.514 60.4798C219.763 60.1963 220.768 59.1204 222.647 59.1204C224.422 59.1204 225.884 60.0575 225.884 62.5565V66.0274L227.225 66.2298V67.167H223.335V66.2298L224.508 66.0274V62.7243C224.508 60.9773 223.838 60.3409 222.329 60.3409C220.82 60.3409 219.919 61.5153 219.699 61.9665V66.0274L221.04 66.2298V67.167H217.15V66.2298L218.323 66.0274V60.5955L216.948 60.393V59.3865L219.26 59.2534L219.514 60.4798Z" fill="white"/>
<path d="M229.422 64.9225C229.422 64.9225 229.439 62.4235 229.457 60.5435H228.046V59.5543C229.405 59.2534 229.52 58.9353 229.757 57.1073H230.832V59.3865H233.532V60.5435H230.832C230.798 64.2688 230.798 64.3325 230.798 64.4019C230.798 65.6283 230.965 66.0795 231.988 66.0795C232.694 66.0795 233.399 65.6919 233.462 65.6456L234 66.5654C233.884 66.6637 232.96 67.2711 231.671 67.2711C230.26 67.2711 229.428 66.4844 229.428 64.9225H229.422Z" fill="white"/>
<path d="M0 63.8754L4.57815 63.0713V34.4367L0 33.6326V30.4279H15.5669C30.2782 30.4279 36.3997 36.901 36.3997 49.0433C36.3997 61.1855 27.9313 67.086 16.1969 67.086H0V63.8812V63.8754ZM16.5438 62.6722C26.6192 62.6722 31.3129 57.2287 31.3129 49.0375C31.3129 39.2438 27.1914 34.8301 15.5726 34.8301H9.50313V62.6664H16.5438V62.6722Z" fill="white"/>
<path d="M47.9145 61.469C48.6602 62.3309 52.4926 63.7597 56.2153 63.7597C59.9379 63.7597 67.1462 63.0714 67.1462 57.6279C67.1462 52.8728 61.3079 51.8431 55.0707 50.582C50.0359 49.5523 42.423 48.0599 42.423 40.2736C42.423 32.8864 49.8047 29.5023 57.1344 29.5023C64.464 29.5023 71.389 32.7649 71.389 37.2944C71.389 39.5852 69.9613 41.2454 67.782 41.2454C65.6028 41.2454 64.4062 39.7009 64.4062 38.2663C64.4062 37.0052 65.0363 36.3168 65.4351 35.9176C64.6895 35.1135 61.7125 33.8004 57.25 33.8004C51.8683 33.8004 47.348 36.149 47.348 40.1C47.348 44.3981 52.3308 45.3121 57.7066 46.3996C64.9207 47.8863 72.0711 49.8936 72.0711 57.57C72.0711 63.9275 66.4063 67.9942 56.7297 67.9942C49.6313 67.9942 41.7929 64.9572 41.7929 59.9765C41.7929 57.3965 43.3941 56.1412 45.3422 56.1412C47.689 56.1412 48.8336 57.975 48.8336 59.2939C48.8336 60.4393 48.1457 61.2434 47.9203 61.469H47.9145Z" fill="white"/>
<path d="M86.9039 34.8359V45.9484H102.014V50.3564H86.9039V62.6722H104.933L105.679 59.4096H109.113L109.511 67.086H77.4008V63.8812L81.9789 63.0771V34.4367L77.4008 33.6326V30.4279H108.939L108.598 38.1043H105.164L104.419 34.8416H86.9039V34.8359Z" fill="white"/>
<path d="M66.4409 0C66.4409 0 68.5277 0.665249 69.8109 4.66831C71.048 8.52675 68.6953 12.1249 63.6547 15.4685C59.3598 18.3204 52.2961 21.9243 46.3769 26.1645C42.2958 29.0858 40.1686 32.6377 40.1686 32.6377C40.1686 32.6377 38.0009 27.0669 38.5096 21.0045C38.9489 15.7172 41.7236 11.6332 46.0358 8.42841C52.6602 3.48822 66.4409 0 66.4409 0Z" fill="#3FB24F"/>
<path d="M11.5032 17.3023C11.5032 17.3023 10.5841 18.3204 11.1564 20.8946C11.7055 23.3763 14.116 24.5795 17.9022 24.7993C21.1277 24.9845 26.0931 24.701 30.6366 25.1291C33.7696 25.4241 36.0414 26.6678 36.0414 26.6678C36.0414 26.6678 35.4575 22.9656 33.2667 19.8418C31.3592 17.1172 28.5672 15.7867 25.2203 15.4107C20.0699 14.8322 11.5032 17.3023 11.5032 17.3023Z" fill="#3FB24F"/>
</g>
<defs>
<clipPath id="clip0_513_5436">
<rect width="234" height="68" fill="white"/>
</clipPath>
</defs>
</svg>
